<?xml version="1.0" standalone="no"?>
<svg viewBox="0 0 200 200" xmlns="http://www.w3.org/2000/svg">
  <path fill="#F1F5F9" d="M37.5,-66.4C49.8,-57.9,61.8,-50.3,69.4,-39.3C77.1,-28.4,80.4,-14.2,82.4,1.2C84.4,16.5,85.2,33.1,79.1,46.7C73,60.4,60.2,71.1,45.8,78.3C31.5,85.5,15.8,89.1,0.3,88.5C-15.2,88,-30.3,83.4,-42,74.7C-53.7,66,-62,53.3,-70.8,40.1C-79.7,27,-89.2,13.5,-88.3,0.5C-87.5,-12.6,-76.4,-25.1,-66.8,-37C-57.2,-48.9,-49.2,-60.1,-38.3,-69.4C-27.4,-78.8,-13.7,-86.2,-0.5,-85.3C12.6,-84.3,25.2,-75,37.5,-66.4Z" transform="translate(100 100)" />
</svg>
