<?xml version="1.0" standalone="no"?>
<svg viewBox="0 0 200 200" xmlns="http://www.w3.org/2000/svg">
  <path fill="#F1F5F9" d="M44,-72C58.1,-68.1,71.3,-58.4,78.6,-45.5C85.8,-32.5,87.2,-16.3,84.2,-1.7C81.3,12.9,74.1,25.8,64,33.7C53.8,41.6,40.6,44.5,29.4,52.8C18.3,61.1,9.1,74.8,0.1,74.7C-9,74.6,-18,60.7,-31.3,53.7C-44.6,46.6,-62.2,46.3,-73.2,38.5C-84.1,30.7,-88.3,15.4,-83.8,2.6C-79.2,-10.1,-65.7,-20.1,-54.8,-28C-44,-35.9,-35.7,-41.6,-26.9,-48.7C-18.2,-55.7,-9.1,-64,2.9,-69.1C15,-74.2,29.9,-76,44,-72Z" transform="translate(100 100)" />
</svg>
